<svg width="50" height="50" viewBox="0 0 50 50" fill="none" xmlns="http://www.w3.org/2000/svg">
<circle cx="25" cy="25" r="25" fill="#292929"/>
<path d="M18.75 25.9949C18.75 26.3794 18.8928 26.709 19.2004 26.9946L27.7478 35.3662C27.9895 35.6079 28.2971 35.7397 28.6597 35.7397C29.3848 35.7397 29.967 35.1685 29.967 34.4324C29.967 34.0698 29.8132 33.7512 29.5715 33.4985L21.8701 25.9949L29.5715 18.4912C29.8132 18.2385 29.967 17.9089 29.967 17.5574C29.967 16.8213 29.3848 16.25 28.6597 16.25C28.2971 16.25 27.9895 16.3818 27.7478 16.6235L19.2004 24.9841C18.8928 25.2808 18.75 25.6104 18.75 25.9949Z" fill="white"/>
</svg>
