<svg width="35" height="29" viewBox="0 0 35 29" fill="none" xmlns="http://www.w3.org/2000/svg">
<path d="M25.8477 5.70703C26 5.70703 26.0821 5.61328 26.1055 5.47266C26.4571 3.57422 26.4219 3.48047 28.461 3.11719C28.6016 3.08203 28.6953 3 28.6953 2.84766C28.6953 2.70703 28.6016 2.61328 28.461 2.58984C26.4219 2.22656 26.4571 2.13281 26.1055 0.234375C26.0821 0.09375 26 0 25.8477 0C25.6953 0 25.6133 0.09375 25.5898 0.234375C25.2383 2.13281 25.2734 2.22656 23.2344 2.58984C23.082 2.61328 23 2.70703 23 2.84766C23 3 23.082 3.08203 23.2344 3.11719C25.2734 3.48047 25.2383 3.57422 25.5898 5.47266C25.6133 5.61328 25.6953 5.70703 25.8477 5.70703Z" fill="white"/>
<path d="M31 12C31.1974 12 31.3325 11.8648 31.3532 11.6775C31.7273 8.89985 31.8208 8.89985 34.6883 8.34852C34.8649 8.31731 35 8.19247 35 7.99481C35 7.80756 34.8649 7.67231 34.6883 7.65151C31.8208 7.24578 31.7169 7.15215 31.3532 4.3329C31.3325 4.13525 31.1974 4 31 4C30.813 4 30.6779 4.13525 30.6468 4.3433C30.3143 7.12095 30.1584 7.11055 27.3117 7.65151C27.1351 7.68272 27 7.80756 27 7.99481C27 8.20288 27.1351 8.31731 27.3532 8.34852C30.1792 8.80628 30.3143 8.87908 30.6468 11.6567C30.6779 11.8648 30.813 12 31 12Z" fill="white"/>
<path d="M4.64062 28.4336C6.04688 28.4336 9.55078 26.8984 11.543 25.4688C11.7422 25.3281 11.9062 25.2695 12.0703 25.2695C12.2227 25.2812 12.375 25.293 12.5273 25.293C20.9766 25.293 26.5781 20.4883 26.5781 14.6523C26.5781 8.75781 20.6719 4 13.2891 4C5.90625 4 0 8.75781 0 14.6523C0 18.4023 2.30859 21.6953 6.07031 23.7109C6.24609 23.8047 6.30469 23.9805 6.21094 24.1562C5.55469 25.2344 4.38281 26.5234 3.9375 27.1094C3.48047 27.6953 3.73828 28.4336 4.64062 28.4336Z" fill="white"/>
<path d="M18.9375 16.5156C17.9648 16.5156 17.1797 15.7305 17.1797 14.7578C17.1797 13.7852 17.9648 13 18.9375 13C19.8867 13 20.6953 13.7852 20.6953 14.7578C20.6953 15.7305 19.8867 16.5156 18.9375 16.5156Z" fill="black"/>
<path d="M13.2891 16.5156C12.3164 16.5156 11.5312 15.7305 11.5312 14.7578C11.5312 13.7852 12.3164 13 13.2891 13C14.2617 13 15.0469 13.7852 15.0469 14.7578C15.0469 15.7305 14.2617 16.5156 13.2891 16.5156Z" fill="black"/>
<path d="M7.65234 16.5156C6.69141 16.5156 5.89453 15.7305 5.89453 14.7578C5.89453 13.7852 6.69141 13 7.65234 13C8.60156 13 9.39844 13.7852 9.39844 14.7578C9.39844 15.7305 8.61328 16.5156 7.65234 16.5156Z" fill="black"/>
</svg>
