<svg width="110" height="110" viewBox="0 0 110 110" fill="none" xmlns="http://www.w3.org/2000/svg">
<circle cx="55" cy="55" r="50" stroke="#BBBABA" stroke-width="10"/>
<path d="M105 55C105 65.559 101.657 75.8469 95.4508 84.3893C89.2444 92.9316 80.493 99.2899 70.4508 102.553C60.4087 105.816 49.5913 105.816 39.5491 102.553C29.507 99.2899 20.7556 92.9316 14.5491 84.3893C8.34275 75.8469 5 65.559 5 55C5 44.441 8.34275 34.1531 14.5492 25.6107C20.7556 17.0684 29.507 10.7101 39.5492 7.44717C49.5913 4.18427 60.4087 4.18428 70.4509 7.44718" stroke="white" stroke-width="10" stroke-linecap="round"/>
<path d="M48.7832 75.808L49.8152 70.432C49.8312 70.368 49.8952 70.32 49.9592 70.32H50.0872C50.1432 70.32 50.2072 70.36 50.2232 70.408L51.8072 74.816C51.8232 74.816 51.8312 74.816 51.8472 74.816L53.4072 70.408C53.4232 70.36 53.4872 70.32 53.5432 70.32H53.6712C53.7352 70.32 53.7992 70.368 53.8152 70.432L54.8472 75.808C54.8712 75.92 54.8232 76 54.7032 76H54.3832C54.3192 76 54.2552 75.944 54.2392 75.888L53.5272 71.768C53.5192 71.768 53.5032 71.768 53.4952 71.768L52.0232 75.992C52.0072 76.04 51.9352 76.08 51.8872 76.08H51.7432C51.6952 76.08 51.6232 76.04 51.6072 75.992L50.1192 71.768C50.1112 71.768 50.0952 71.768 50.0872 71.768L49.3912 75.888C49.3832 75.944 49.3112 76 49.2472 76H48.9272C48.8072 76 48.7592 75.92 48.7832 75.808ZM55.5717 74.152C55.5717 73.112 56.2437 72.224 57.3637 72.224C58.3317 72.224 59.0357 72.936 59.0357 73.904C59.0357 73.968 59.0277 74.064 59.0197 74.128C59.0117 74.224 58.9317 74.288 58.8517 74.288H56.1637C56.1797 74.904 56.6997 75.552 57.3717 75.552C57.8597 75.552 58.1637 75.384 58.3717 75.248C58.4997 75.16 58.5557 75.128 58.6517 75.272L58.7477 75.408C58.8197 75.52 58.8517 75.56 58.7157 75.664C58.4917 75.84 58.0037 76.088 57.3637 76.088C56.2437 76.088 55.5717 75.208 55.5717 74.152ZM56.1717 73.816H58.4437C58.4277 73.272 57.9957 72.76 57.3637 72.76C56.7397 72.76 56.2437 73.24 56.1717 73.816ZM61.0388 76.088C60.4228 76.088 60.0068 75.816 59.8148 75.64C59.7748 75.6 59.7588 75.544 59.7908 75.48L59.9028 75.272C59.9508 75.184 60.0148 75.152 60.1188 75.224C60.2468 75.32 60.5668 75.552 61.0388 75.552C61.4148 75.552 61.6708 75.376 61.6708 75.088C61.6708 74.736 61.3828 74.592 60.8468 74.328C60.3588 74.088 59.7988 73.824 59.7988 73.192C59.7988 72.808 60.0868 72.224 60.9428 72.224C61.4228 72.224 61.8228 72.384 61.9988 72.512C62.0788 72.576 62.0948 72.656 62.0388 72.76L61.9588 72.912C61.9028 73.016 61.7828 73.024 61.7028 72.976C61.5428 72.88 61.2868 72.76 60.9428 72.76C60.5348 72.76 60.3988 72.992 60.3988 73.168C60.3988 73.496 60.6548 73.616 61.1028 73.824C61.7428 74.12 62.2948 74.36 62.2948 75.032C62.2948 75.616 61.7908 76.088 61.0388 76.088ZM41.0967 86.824V83.48C41.0967 83.392 41.1767 83.304 41.2727 83.304H41.4007C41.4727 83.304 41.5367 83.344 41.5607 83.432L41.6247 83.696C41.6247 83.696 41.9927 83.224 42.7607 83.224C43.0407 83.224 43.4967 83.264 43.4087 83.52L43.3047 83.808C43.2647 83.928 43.1767 83.936 43.0887 83.896C43.0007 83.856 42.8647 83.792 42.6887 83.792C41.9767 83.792 41.6887 84.264 41.6887 84.264V86.824C41.6887 86.92 41.6007 87 41.5127 87H41.2727C41.1767 87 41.0967 86.92 41.0967 86.824ZM43.8334 85.152C43.8334 84.112 44.5054 83.224 45.6254 83.224C46.5934 83.224 47.2974 83.936 47.2974 84.904C47.2974 84.968 47.2894 85.064 47.2814 85.128C47.2734 85.224 47.1934 85.288 47.1134 85.288H44.4254C44.4414 85.904 44.9614 86.552 45.6334 86.552C46.1214 86.552 46.4254 86.384 46.6334 86.248C46.7614 86.16 46.8174 86.128 46.9134 86.272L47.0094 86.408C47.0814 86.52 47.1134 86.56 46.9774 86.664C46.7534 86.84 46.2654 87.088 45.6254 87.088C44.5054 87.088 43.8334 86.208 43.8334 85.152ZM44.4334 84.816H46.7054C46.6894 84.272 46.2574 83.76 45.6254 83.76C45.0014 83.76 44.5054 84.24 44.4334 84.816ZM49.3005 87.088C48.6845 87.088 48.2685 86.816 48.0765 86.64C48.0365 86.6 48.0205 86.544 48.0525 86.48L48.1645 86.272C48.2125 86.184 48.2765 86.152 48.3805 86.224C48.5085 86.32 48.8285 86.552 49.3005 86.552C49.6765 86.552 49.9325 86.376 49.9325 86.088C49.9325 85.736 49.6445 85.592 49.1085 85.328C48.6205 85.088 48.0605 84.824 48.0605 84.192C48.0605 83.808 48.3485 83.224 49.2045 83.224C49.6845 83.224 50.0845 83.384 50.2605 83.512C50.3405 83.576 50.3565 83.656 50.3005 83.76L50.2205 83.912C50.1645 84.016 50.0445 84.024 49.9645 83.976C49.8045 83.88 49.5485 83.76 49.2045 83.76C48.7965 83.76 48.6605 83.992 48.6605 84.168C48.6605 84.496 48.9165 84.616 49.3645 84.824C50.0045 85.12 50.5565 85.36 50.5565 86.032C50.5565 86.616 50.0525 87.088 49.3005 87.088ZM51.7585 83.816H51.2705C51.1585 83.816 51.0865 83.736 51.0865 83.64V83.48C51.0865 83.376 51.1585 83.304 51.2705 83.304H51.7585V82.28C51.7585 82.184 51.8465 82.112 51.9345 82.104L52.1825 82.088C52.2785 82.08 52.3505 82.168 52.3505 82.264V83.304H53.4385C53.5425 83.304 53.6225 83.376 53.6225 83.48V83.64C53.6225 83.736 53.5425 83.816 53.4385 83.816H52.3505V86.024C52.3505 86.408 52.4705 86.552 52.6785 86.552C53.0225 86.552 53.2545 86.408 53.4065 86.312C53.5505 86.224 53.5985 86.296 53.6385 86.384L53.7105 86.552C53.7585 86.672 53.7425 86.728 53.6465 86.792C53.4865 86.904 53.1025 87.088 52.6065 87.088C51.9025 87.088 51.7585 86.64 51.7585 86.064V83.816ZM54.2618 85.88C54.2618 85.176 54.7898 84.656 55.7418 84.656C56.1338 84.656 56.5338 84.776 56.5338 84.776C56.5418 84.096 56.4538 83.76 55.9258 83.76C55.4218 83.76 54.9978 83.92 54.8298 83.976C54.7338 84.016 54.6858 83.968 54.6538 83.88L54.5738 83.664C54.5418 83.552 54.5978 83.504 54.6858 83.464C54.8698 83.384 55.3498 83.224 55.9578 83.224C56.9018 83.224 57.1018 83.688 57.1018 84.776V86.824C57.1018 86.92 57.0218 87 56.9258 87H56.7738C56.6778 87 56.6458 86.944 56.6218 86.864L56.5498 86.616C56.3578 86.808 55.9738 87.088 55.4058 87.088C54.7578 87.088 54.2618 86.624 54.2618 85.88ZM54.8458 85.88C54.8458 86.256 55.1018 86.552 55.5098 86.552C55.9658 86.552 56.3658 86.296 56.5258 86.056V85.304C56.4058 85.24 56.1098 85.16 55.7418 85.16C55.2298 85.16 54.8458 85.408 54.8458 85.88ZM58.3154 86.824V83.48C58.3154 83.392 58.3954 83.304 58.4914 83.304H58.6194C58.6994 83.304 58.7474 83.336 58.7634 83.416L58.8434 83.696C58.8434 83.696 59.3154 83.224 60.0834 83.224C61.1554 83.224 61.4194 83.92 61.4194 84.872V86.824C61.4194 86.92 61.3314 87 61.2434 87H61.0034C60.9074 87 60.8274 86.92 60.8274 86.824V84.792C60.8274 84.088 60.5874 83.76 60.0434 83.76C59.3474 83.76 58.9074 84.272 58.9074 84.272V86.824C58.9074 86.92 58.8194 87 58.7314 87H58.4914C58.3954 87 58.3154 86.92 58.3154 86.824ZM62.8288 83.816H62.3408C62.2288 83.816 62.1568 83.736 62.1568 83.64V83.48C62.1568 83.376 62.2288 83.304 62.3408 83.304H62.8288V82.28C62.8288 82.184 62.9168 82.112 63.0048 82.104L63.2528 82.088C63.3488 82.08 63.4208 82.168 63.4208 82.264V83.304H64.5088C64.6128 83.304 64.6928 83.376 64.6928 83.48V83.64C64.6928 83.736 64.6128 83.816 64.5088 83.816H63.4208V86.024C63.4208 86.408 63.5408 86.552 63.7488 86.552C64.0928 86.552 64.3248 86.408 64.4768 86.312C64.6208 86.224 64.6688 86.296 64.7088 86.384L64.7808 86.552C64.8288 86.672 64.8128 86.728 64.7168 86.792C64.5568 86.904 64.1728 87.088 63.6768 87.088C62.9728 87.088 62.8288 86.64 62.8288 86.064V83.816ZM65.3881 85.152C65.3881 84.112 66.0601 83.224 67.1801 83.224C68.1481 83.224 68.8521 83.936 68.8521 84.904C68.8521 84.968 68.8441 85.064 68.8361 85.128C68.8281 85.224 68.7481 85.288 68.6681 85.288H65.9801C65.9961 85.904 66.5161 86.552 67.1881 86.552C67.6761 86.552 67.9801 86.384 68.1881 86.248C68.3161 86.16 68.3721 86.128 68.4681 86.272L68.5641 86.408C68.6361 86.52 68.6681 86.56 68.5321 86.664C68.3081 86.84 67.8201 87.088 67.1801 87.088C66.0601 87.088 65.3881 86.208 65.3881 85.152ZM65.9881 84.816H68.2601C68.2441 84.272 67.8121 83.76 67.1801 83.76C66.5561 83.76 66.0601 84.24 65.9881 84.816ZM70.8552 87.088C70.2392 87.088 69.8232 86.816 69.6312 86.64C69.5912 86.6 69.5752 86.544 69.6072 86.48L69.7192 86.272C69.7672 86.184 69.8312 86.152 69.9352 86.224C70.0632 86.32 70.3832 86.552 70.8552 86.552C71.2312 86.552 71.4872 86.376 71.4872 86.088C71.4872 85.736 71.1992 85.592 70.6632 85.328C70.1752 85.088 69.6152 84.824 69.6152 84.192C69.6152 83.808 69.9032 83.224 70.7592 83.224C71.2392 83.224 71.6392 83.384 71.8152 83.512C71.8952 83.576 71.9112 83.656 71.8552 83.76L71.7752 83.912C71.7192 84.016 71.5992 84.024 71.5192 83.976C71.3592 83.88 71.1032 83.76 70.7592 83.76C70.3512 83.76 70.2152 83.992 70.2152 84.168C70.2152 84.496 70.4712 84.616 70.9192 84.824C71.5592 85.12 72.1112 85.36 72.1112 86.032C72.1112 86.616 71.6072 87.088 70.8552 87.088Z" fill="white"/>
<path d="M55.8094 40.12H55.7694L52.8494 42.4C52.5294 42.64 52.2094 42.68 51.9294 42.36L51.1294 41.48C50.8494 41.16 51.0094 40.8 51.2094 40.6L56.6894 35.28C56.8894 35.08 57.0894 35 57.3694 35H58.0894C58.4894 35 58.8494 35.36 58.8494 35.76V62.2C58.8494 62.64 58.4894 63 58.0894 63H56.6094C56.1694 63 55.8094 62.64 55.8094 62.2V40.12Z" fill="white"/>
</svg>
