<svg width="22" height="20" viewBox="0 0 22 20" fill="none" xmlns="http://www.w3.org/2000/svg">
<path d="M13.3601 18.1666H8.63256V12.0919C8.63256 11.6547 8.91524 11.3705 9.33638 11.3705H12.6652C13.0864 11.3705 13.3601 11.6547 13.3601 12.0919V18.1666ZM2.9146 17.8426C2.9146 19.1871 3.72857 20 5.06282 20H16.9504C18.2846 20 19.0896 19.1871 19.0896 17.8426V10.7121L11.56 4.15477C11.2093 3.84857 10.7923 3.85624 10.4491 4.15477L2.9146 10.7121V17.8426ZM0 9.43433C0 9.91739 0.350103 10.3295 0.92123 10.3295C1.2012 10.3295 1.45071 10.1791 1.67083 9.99134L10.6241 2.19272C10.8662 1.97018 11.1501 1.97018 11.3939 2.19272L20.3424 9.99134C20.5567 10.1791 20.8062 10.3295 21.0862 10.3295C21.6039 10.3295 22 9.99581 22 9.45733C22 9.14126 21.8823 8.89681 21.6541 8.69469L12.2721 0.50787C11.5012 -0.16929 10.5243 -0.16929 9.74598 0.50787L0.353348 8.69637C0.117722 8.90017 0 9.1736 0 9.43433ZM16.5739 4.90215L19.1204 7.12697V2.60974C19.1204 2.18787 18.8615 1.9191 18.4551 1.9191H17.2408C16.8418 1.9191 16.5739 2.18787 16.5739 2.60974V4.90215Z" fill="white"/>
</svg>
