<svg width="45" height="45" viewBox="0 0 45 45" fill="none" xmlns="http://www.w3.org/2000/svg">
<circle cx="22.5" cy="22.5" r="22.5" fill="#292929"/>
<path d="M13.7695 31.0508H32.3438C33.4453 31.0508 34.1133 30.4883 34.1133 29.6328C34.1133 28.4609 32.918 27.4062 31.9102 26.3633C31.1367 25.5547 30.9258 23.8906 30.832 22.543C30.8203 21.7812 30.7734 21.0547 30.7031 20.3633C30.1172 20.5977 29.4844 20.7266 28.8164 20.7266C25.7109 20.7266 23.1562 18.1719 23.1562 15.0664C23.1562 13.6719 23.6719 12.3945 24.5039 11.4102C24.082 11.1992 23.5898 11.082 23.0508 11.082C21.3281 11.082 20.1094 12.2891 19.6758 13.8242C16.5586 14.9492 15.3633 18.043 15.2812 22.543C15.1875 23.8906 14.9766 25.5547 14.2031 26.3633C13.1836 27.4062 12 28.4609 12 29.6328C12 30.4883 12.6562 31.0508 13.7695 31.0508ZM23.0508 35.75C25.043 35.75 26.4961 34.2969 26.6484 32.6562H19.4648C19.6172 34.2969 21.0703 35.75 23.0508 35.75ZM28.8281 19.1211C31.043 19.1211 32.8945 17.293 32.8945 15.0664C32.8945 12.8281 31.043 11 28.8281 11C26.5898 11 24.7617 12.8281 24.7617 15.0664C24.7617 17.293 26.5898 19.1211 28.8281 19.1211Z" fill="white"/>
</svg>
